<svg width="620" height="146" viewBox="0 0 620 146" fill="none" xmlns="http://www.w3.org/2000/svg">
<rect x="0.0395508" y="0.777588" width="619.218" height="144.419" rx="12" fill="#FAFAFA"/>
<path d="M200.39 58.7057C203.33 58.7057 205.668 59.4477 207.404 60.9317C209.168 62.3877 210.05 64.5437 210.05 67.3997C210.05 70.2557 209.168 72.4257 207.404 73.9097C205.668 75.3657 203.33 76.0937 200.39 76.0937H191.906V87.1817C191.906 87.7977 191.584 88.1057 190.94 88.1057H190.184C189.568 88.1057 189.26 87.7977 189.26 87.1817V59.6717C189.26 59.0277 189.568 58.7057 190.184 58.7057H200.39ZM191.906 73.5737H200.18C202.644 73.5737 204.464 73.0557 205.64 72.0197C206.816 70.9557 207.404 69.4157 207.404 67.3997C207.404 65.3837 206.816 63.8577 205.64 62.8217C204.464 61.7577 202.644 61.2257 200.18 61.2257H191.906V73.5737ZM223.115 65.8457C224.627 65.8457 225.957 66.0977 227.105 66.6017C228.253 67.0777 229.205 67.7497 229.961 68.6177C230.745 69.4577 231.333 70.4657 231.725 71.6417C232.145 72.8177 232.383 74.0777 232.439 75.4217C232.439 75.6457 232.439 75.9117 232.439 76.2197C232.467 76.5277 232.481 76.8497 232.481 77.1857C232.481 77.5217 232.467 77.8577 232.439 78.1937C232.439 78.5017 232.439 78.7537 232.439 78.9497C232.383 80.2937 232.145 81.5537 231.725 82.7297C231.333 83.9057 230.745 84.9277 229.961 85.7957C229.205 86.6357 228.253 87.3077 227.105 87.8117C225.957 88.2877 224.627 88.5257 223.115 88.5257C221.603 88.5257 220.273 88.2877 219.125 87.8117C217.977 87.3077 217.011 86.6357 216.227 85.7957C215.471 84.9277 214.883 83.9057 214.463 82.7297C214.043 81.5537 213.819 80.2937 213.791 78.9497C213.791 78.7537 213.777 78.5017 213.749 78.1937C213.749 77.8577 213.749 77.5217 213.749 77.1857C213.749 76.8497 213.749 76.5277 213.749 76.2197C213.777 75.9117 213.791 75.6457 213.791 75.4217C213.819 74.0777 214.043 72.8177 214.463 71.6417C214.883 70.4657 215.471 69.4577 216.227 68.6177C217.011 67.7497 217.977 67.0777 219.125 66.6017C220.273 66.0977 221.603 65.8457 223.115 65.8457ZM229.877 75.6317C229.793 73.2237 229.135 71.4037 227.903 70.1717C226.671 68.9117 225.075 68.2817 223.115 68.2817C221.155 68.2817 219.559 68.9117 218.327 70.1717C217.095 71.4037 216.437 73.2237 216.353 75.6317C216.325 76.0517 216.311 76.5697 216.311 77.1857C216.311 77.8017 216.325 78.3197 216.353 78.7397C216.437 81.1477 217.095 82.9817 218.327 84.2417C219.559 85.4737 221.155 86.0897 223.115 86.0897C225.075 86.0897 226.671 85.4737 227.903 84.2417C229.135 82.9817 229.793 81.1477 229.877 78.7397C229.905 78.3197 229.919 77.8017 229.919 77.1857C229.919 76.5697 229.905 76.0517 229.877 75.6317ZM257.846 84.3677L263.012 66.8957C263.04 66.7837 263.124 66.6577 263.264 66.5177C263.432 66.3497 263.656 66.2657 263.936 66.2657H264.734C264.958 66.2657 265.154 66.3497 265.322 66.5177C265.49 66.6857 265.574 66.8817 265.574 67.1057C265.574 67.2457 265.546 67.3997 265.49 67.5677L259.568 87.0557C259.428 87.4197 259.26 87.6857 259.064 87.8537C258.896 88.0217 258.616 88.1057 258.224 88.1057H257.51C256.754 88.1057 256.278 87.7557 256.082 87.0557L250.79 70.5077L245.498 87.0557C245.302 87.7557 244.826 88.1057 244.07 88.1057H243.356C242.964 88.1057 242.67 88.0217 242.474 87.8537C242.306 87.6857 242.152 87.4197 242.012 87.0557L236.09 67.5677C236.034 67.3997 236.006 67.2457 236.006 67.1057C236.006 66.8817 236.09 66.6857 236.258 66.5177C236.426 66.3497 236.622 66.2657 236.846 66.2657H237.644C237.924 66.2657 238.134 66.3497 238.274 66.5177C238.442 66.6577 238.54 66.7837 238.568 66.8957L243.734 84.3677L249.236 67.1057C249.292 66.9377 249.404 66.7557 249.572 66.5597C249.74 66.3637 250.006 66.2657 250.37 66.2657H251.21C251.574 66.2657 251.84 66.3637 252.008 66.5597C252.176 66.7557 252.288 66.9377 252.344 67.1057L257.846 84.3677ZM269.079 75.5057C269.191 74.0777 269.471 72.7757 269.919 71.5997C270.395 70.3957 271.011 69.3737 271.767 68.5337C272.551 67.6937 273.489 67.0357 274.581 66.5597C275.673 66.0837 276.905 65.8457 278.277 65.8457C281.217 65.8457 283.499 66.8117 285.123 68.7437C286.747 70.6477 287.559 73.2937 287.559 76.6817V77.3117C287.559 77.5917 287.461 77.8157 287.265 77.9837C287.097 78.1517 286.873 78.2357 286.593 78.2357H271.641V78.6557C271.669 79.6077 271.837 80.5317 272.145 81.4277C272.481 82.3237 272.929 83.1217 273.489 83.8217C274.049 84.4937 274.735 85.0397 275.547 85.4597C276.359 85.8797 277.269 86.0897 278.277 86.0897C279.173 86.0897 279.957 85.9777 280.629 85.7537C281.301 85.5297 281.875 85.2777 282.351 84.9977C282.827 84.6897 283.205 84.3817 283.485 84.0737C283.793 83.7657 284.003 83.5277 284.115 83.3597C284.367 82.9957 284.563 82.7857 284.703 82.7297C284.843 82.6457 285.067 82.6037 285.375 82.6037H286.047C286.299 82.6037 286.509 82.6877 286.677 82.8557C286.873 82.9957 286.957 83.1917 286.929 83.4437C286.901 83.8357 286.677 84.3257 286.257 84.9137C285.865 85.5017 285.291 86.0617 284.535 86.5937C283.807 87.1257 282.911 87.5877 281.847 87.9797C280.783 88.3437 279.593 88.5257 278.277 88.5257C276.933 88.5257 275.715 88.3017 274.623 87.8537C273.531 87.3777 272.593 86.7197 271.809 85.8797C271.025 85.0117 270.395 83.9897 269.919 82.8137C269.471 81.6097 269.191 80.2937 269.079 78.8657C269.051 78.4457 269.037 77.8857 269.037 77.1857C269.037 76.4857 269.051 75.9257 269.079 75.5057ZM271.641 75.8837H284.997V75.7157C284.997 74.6797 284.843 73.7137 284.535 72.8177C284.227 71.8937 283.779 71.0957 283.191 70.4237C282.631 69.7517 281.931 69.2337 281.091 68.8697C280.251 68.4777 279.313 68.2817 278.277 68.2817C277.213 68.2817 276.275 68.4777 275.463 68.8697C274.651 69.2337 273.951 69.7517 273.363 70.4237C272.803 71.0957 272.369 71.8937 272.061 72.8177C271.781 73.7137 271.641 74.6797 271.641 75.7157V75.8837ZM295.66 69.1637C296.668 67.2317 298.572 66.2657 301.372 66.2657H302.926C303.542 66.2657 303.85 66.5737 303.85 67.1897V67.7777C303.85 68.3937 303.542 68.7017 302.926 68.7017H301.12C299.44 68.7017 298.11 69.1917 297.13 70.1717C296.15 71.1517 295.66 72.4817 295.66 74.1617V87.1817C295.66 87.4617 295.562 87.6857 295.366 87.8537C295.198 88.0217 294.974 88.1057 294.694 88.1057H294.022C293.406 88.1057 293.098 87.7977 293.098 87.1817V67.2317C293.098 66.9517 293.182 66.7277 293.35 66.5597C293.518 66.3637 293.742 66.2657 294.022 66.2657H294.694C294.974 66.2657 295.198 66.3637 295.366 66.5597C295.562 66.7277 295.66 66.9517 295.66 67.2317V69.1637ZM306.116 75.5057C306.228 74.0777 306.508 72.7757 306.956 71.5997C307.432 70.3957 308.048 69.3737 308.804 68.5337C309.588 67.6937 310.526 67.0357 311.618 66.5597C312.71 66.0837 313.942 65.8457 315.314 65.8457C318.254 65.8457 320.536 66.8117 322.16 68.7437C323.784 70.6477 324.596 73.2937 324.596 76.6817V77.3117C324.596 77.5917 324.498 77.8157 324.302 77.9837C324.134 78.1517 323.91 78.2357 323.63 78.2357H308.678V78.6557C308.706 79.6077 308.874 80.5317 309.182 81.4277C309.518 82.3237 309.966 83.1217 310.526 83.8217C311.086 84.4937 311.772 85.0397 312.584 85.4597C313.396 85.8797 314.306 86.0897 315.314 86.0897C316.21 86.0897 316.994 85.9777 317.666 85.7537C318.338 85.5297 318.912 85.2777 319.388 84.9977C319.864 84.6897 320.242 84.3817 320.522 84.0737C320.83 83.7657 321.04 83.5277 321.152 83.3597C321.404 82.9957 321.6 82.7857 321.74 82.7297C321.88 82.6457 322.104 82.6037 322.412 82.6037H323.084C323.336 82.6037 323.546 82.6877 323.714 82.8557C323.91 82.9957 323.994 83.1917 323.966 83.4437C323.938 83.8357 323.714 84.3257 323.294 84.9137C322.902 85.5017 322.328 86.0617 321.572 86.5937C320.844 87.1257 319.948 87.5877 318.884 87.9797C317.82 88.3437 316.63 88.5257 315.314 88.5257C313.97 88.5257 312.752 88.3017 311.66 87.8537C310.568 87.3777 309.63 86.7197 308.846 85.8797C308.062 85.0117 307.432 83.9897 306.956 82.8137C306.508 81.6097 306.228 80.2937 306.116 78.8657C306.088 78.4457 306.074 77.8857 306.074 77.1857C306.074 76.4857 306.088 75.9257 306.116 75.5057ZM308.678 75.8837H322.034V75.7157C322.034 74.6797 321.88 73.7137 321.572 72.8177C321.264 71.8937 320.816 71.0957 320.228 70.4237C319.668 69.7517 318.968 69.2337 318.128 68.8697C317.288 68.4777 316.35 68.2817 315.314 68.2817C314.25 68.2817 313.312 68.4777 312.5 68.8697C311.688 69.2337 310.988 69.7517 310.4 70.4237C309.84 71.0957 309.406 71.8937 309.098 72.8177C308.818 73.7137 308.678 74.6797 308.678 75.7157V75.8837ZM338.031 65.8457C339.795 65.8457 341.237 66.1677 342.357 66.8117C343.477 67.4557 344.387 68.2397 345.087 69.1637V59.2097C345.087 58.5937 345.395 58.2857 346.011 58.2857H346.725C347.341 58.2857 347.649 58.5937 347.649 59.2097V87.1817C347.649 87.7977 347.341 88.1057 346.725 88.1057H346.011C345.395 88.1057 345.087 87.7977 345.087 87.1817V85.2077C344.387 86.1597 343.477 86.9577 342.357 87.6017C341.237 88.2177 339.795 88.5257 338.031 88.5257C336.379 88.5257 334.993 88.2317 333.873 87.6437C332.753 87.0277 331.843 86.2437 331.143 85.2917C330.443 84.3117 329.925 83.2197 329.589 82.0157C329.253 80.8117 329.071 79.5937 329.043 78.3617C329.015 77.5777 329.015 76.7937 329.043 76.0097C329.071 74.7777 329.253 73.5597 329.589 72.3557C329.925 71.1517 330.443 70.0737 331.143 69.1217C331.843 68.1417 332.753 67.3577 333.873 66.7697C334.993 66.1537 336.379 65.8457 338.031 65.8457ZM345.087 78.6977C345.115 78.2777 345.129 77.7317 345.129 77.0597C345.129 76.3877 345.115 75.8417 345.087 75.4217C345.059 74.5817 344.905 73.7417 344.625 72.9017C344.373 72.0337 343.967 71.2637 343.407 70.5917C342.847 69.9197 342.147 69.3737 341.307 68.9537C340.467 68.5057 339.459 68.2817 338.283 68.2817C337.051 68.2817 336.015 68.5057 335.175 68.9537C334.363 69.3737 333.691 69.9477 333.159 70.6757C332.655 71.3757 332.277 72.1877 332.025 73.1117C331.773 74.0357 331.633 75.0017 331.605 76.0097C331.577 76.7937 331.577 77.5777 331.605 78.3617C331.633 79.3697 331.773 80.3497 332.025 81.3017C332.277 82.2257 332.655 83.0517 333.159 83.7797C333.691 84.4797 334.363 85.0397 335.175 85.4597C336.015 85.8797 337.051 86.0897 338.283 86.0897C339.487 86.0897 340.509 85.8657 341.349 85.4177C342.189 84.9697 342.875 84.3957 343.407 83.6957C343.967 82.9677 344.373 82.1697 344.625 81.3017C344.905 80.4337 345.059 79.5657 345.087 78.6977ZM374.987 65.8457C376.611 65.8457 377.983 66.1537 379.103 66.7697C380.251 67.3577 381.175 68.1417 381.875 69.1217C382.575 70.0737 383.079 71.1517 383.387 72.3557C383.723 73.5597 383.919 74.7777 383.975 76.0097C384.003 76.7937 384.003 77.5777 383.975 78.3617C383.919 79.5937 383.723 80.8117 383.387 82.0157C383.079 83.2197 382.575 84.3117 381.875 85.2917C381.175 86.2437 380.251 87.0277 379.103 87.6437C377.983 88.2317 376.611 88.5257 374.987 88.5257C373.223 88.5257 371.781 88.2177 370.661 87.6017C369.541 86.9577 368.631 86.1597 367.931 85.2077V87.1817C367.931 87.7977 367.623 88.1057 367.007 88.1057H366.293C365.677 88.1057 365.369 87.7977 365.369 87.1817V59.2097C365.369 58.5937 365.677 58.2857 366.293 58.2857H367.007C367.623 58.2857 367.931 58.5937 367.931 59.2097V69.1637C368.631 68.2397 369.541 67.4557 370.661 66.8117C371.781 66.1677 373.223 65.8457 374.987 65.8457ZM367.931 78.6977C367.959 79.5657 368.099 80.4337 368.351 81.3017C368.631 82.1697 369.037 82.9677 369.569 83.6957C370.129 84.3957 370.829 84.9697 371.669 85.4177C372.509 85.8657 373.531 86.0897 374.735 86.0897C375.967 86.0897 376.989 85.8797 377.801 85.4597C378.641 85.0397 379.313 84.4797 379.817 83.7797C380.349 83.0517 380.727 82.2257 380.951 81.3017C381.203 80.3497 381.357 79.3697 381.413 78.3617C381.441 77.5777 381.441 76.7937 381.413 76.0097C381.357 75.0017 381.203 74.0357 380.951 73.1117C380.727 72.1877 380.349 71.3757 379.817 70.6757C379.313 69.9477 378.641 69.3737 377.801 68.9537C376.989 68.5057 375.967 68.2817 374.735 68.2817C373.559 68.2817 372.551 68.5057 371.711 68.9537C370.871 69.3737 370.171 69.9197 369.611 70.5917C369.051 71.2637 368.631 72.0337 368.351 72.9017C368.099 73.7417 367.959 74.5817 367.931 75.4217C367.903 75.8417 367.889 76.3877 367.889 77.0597C367.889 77.7317 367.903 78.2777 367.931 78.6977ZM394.413 95.4557C394.329 95.6237 394.217 95.7637 394.077 95.8757C393.937 96.0157 393.727 96.0857 393.447 96.0857H392.607C392.383 96.0857 392.187 96.0017 392.019 95.8337C391.851 95.6657 391.767 95.4697 391.767 95.2457C391.767 95.1057 391.851 94.8257 392.019 94.4057L395.253 86.8457L387.231 67.9457C387.063 67.5257 386.979 67.2457 386.979 67.1057C386.979 66.8817 387.063 66.6857 387.231 66.5177C387.399 66.3497 387.595 66.2657 387.819 66.2657H388.701C388.981 66.2657 389.191 66.3357 389.331 66.4757C389.471 66.5877 389.583 66.7277 389.667 66.8957L396.723 83.5277L403.947 66.8957C404.031 66.7277 404.143 66.5877 404.283 66.4757C404.423 66.3357 404.633 66.2657 404.913 66.2657H405.753C405.977 66.2657 406.173 66.3497 406.341 66.5177C406.509 66.6857 406.593 66.8817 406.593 67.1057C406.593 67.2457 406.509 67.5257 406.341 67.9457L394.413 95.4557Z" fill="#323232"/>
<path d="M494.464 58.2493C494.945 58.2493 495.36 58.424 495.709 58.7735C496.059 59.123 496.234 59.538 496.234 60.0185V66.6369C496.234 67.1174 496.059 67.5324 495.709 67.8819C495.36 68.2314 494.945 68.4061 494.464 68.4061H488.501C484.482 68.4061 482.473 70.4156 482.473 74.4347V90.5546C482.473 91.0351 482.298 91.4502 481.949 91.7996C481.599 92.1491 481.184 92.3239 480.704 92.3239H472.447C471.967 92.3239 471.552 92.1491 471.202 91.7996C470.853 91.4502 470.678 91.0351 470.678 90.5546V60.0185C470.678 59.538 470.853 59.123 471.202 58.7735C471.552 58.424 471.967 58.2493 472.447 58.2493H480.048C480.529 58.2493 480.944 58.424 481.293 58.7735C481.643 59.123 481.818 59.538 481.818 60.0185V61.5257C482.822 60.5646 484.024 59.7783 485.422 59.1667C486.863 58.5551 488.567 58.2493 490.533 58.2493H494.464Z" fill="#323232"/>
<path d="M433.542 81.9353C433.542 79.052 434.634 76.6712 436.818 74.7927C439.046 72.9143 442.65 71.5382 447.63 70.6645L455.297 69.3539C455.297 68.3054 455.013 67.4536 454.445 66.7983C453.877 66.0993 452.894 65.7499 451.496 65.7499C450.491 65.7499 449.705 65.9028 449.137 66.2086C448.613 66.4707 448.22 66.7109 447.958 66.9294C447.565 67.2788 447.193 67.4973 446.844 67.5846C446.494 67.672 446.079 67.7157 445.599 67.7157H437.277C436.84 67.7157 436.468 67.5846 436.163 67.3225C435.901 67.0604 435.791 66.7109 435.835 66.2741C435.922 65.2693 436.359 64.2209 437.146 63.1287C437.932 62.0366 439.002 61.0318 440.356 60.1144C441.754 59.197 443.393 58.4326 445.271 57.821C447.193 57.2094 449.268 56.9036 451.496 56.9036C454.161 56.9036 456.476 57.2312 458.442 57.8865C460.408 58.5418 462.024 59.4592 463.291 60.6387C464.602 61.7745 465.563 63.1506 466.174 64.7669C466.786 66.3396 467.092 68.087 467.092 70.0092V90.324C467.092 90.8046 466.917 91.2196 466.568 91.5691C466.218 91.9185 465.803 92.0933 465.323 92.0933H457.066C456.586 92.0933 456.171 91.9185 455.821 91.5691C455.472 91.2196 455.297 90.8046 455.297 90.324V88.0294C454.248 89.34 452.938 90.3884 451.365 91.1747C449.836 91.9174 447.805 92.2887 445.271 92.2887C443.393 92.2887 441.711 92.0266 440.225 91.5024C438.784 90.9782 437.561 90.2574 436.556 89.34C435.595 88.4226 434.852 87.3304 434.328 86.0636C433.804 84.7967 433.542 83.4206 433.542 81.9353ZM448.482 83.4424C449.443 83.4424 450.339 83.2895 451.169 82.9837C451.999 82.6343 452.719 82.1756 453.331 81.6076C453.943 81.0397 454.423 80.3845 454.773 79.6418C455.122 78.8555 455.297 78.0254 455.297 77.1517L449.268 78.0691C448.089 78.2876 447.128 78.6589 446.385 79.1831C445.686 79.7073 445.337 80.3845 445.337 81.2145C445.337 82.0445 445.599 82.6343 446.123 82.9837C446.691 83.2895 447.477 83.4424 448.482 83.4424Z" fill="#323232"/>
<path d="M511.861 90.5539C511.861 91.0344 511.687 91.4494 511.337 91.7989C510.988 92.1484 510.573 92.3231 510.092 92.3231H501.508C501.027 92.3231 500.612 92.1484 500.263 91.7989C499.914 91.4494 499.739 91.0344 499.739 90.5539V81.9697C499.739 81.4892 499.914 81.0741 500.263 80.7247C500.612 80.3752 501.027 80.2004 501.508 80.2004H510.092C510.573 80.2004 510.988 80.3752 511.337 80.7247C511.687 81.0741 511.861 81.4892 511.861 81.9697V90.5539Z" fill="#323232"/>
<path d="M527.129 90.5545C527.129 91.0351 526.954 91.4501 526.604 91.7996C526.255 92.149 525.84 92.3238 525.359 92.3238H517.103C516.622 92.3238 516.207 92.149 515.858 91.7996C515.508 91.4501 515.333 91.0351 515.333 90.5545V60.0184C515.333 59.5379 515.508 59.1229 515.858 58.7734C516.207 58.4239 516.622 58.2492 517.103 58.2492H525.359C525.84 58.2492 526.255 58.4239 526.604 58.7734C526.954 59.1229 527.129 59.5379 527.129 60.0184V90.5545ZM527.129 51.9562C527.129 52.4367 526.954 52.8517 526.604 53.2012C526.255 53.5507 525.84 53.7255 525.359 53.7255H517.103C516.622 53.7255 516.207 53.5507 515.858 53.2012C515.508 52.8517 515.333 52.4367 515.333 51.9562V45.3379C515.333 44.8573 515.508 44.4423 515.858 44.0928C516.207 43.7433 516.622 43.5686 517.103 43.5686H525.359C525.84 43.5686 526.255 43.7433 526.604 44.0928C526.954 44.4423 527.129 44.8573 527.129 45.3379V51.9562Z" fill="#323232"/>
<path d="M566.399 72.2223C566.443 72.8776 566.465 73.7294 566.465 74.7779C566.465 75.7826 566.443 76.6127 566.399 77.2679C566.312 79.3648 565.831 81.3307 564.958 83.1655C564.084 85.0003 562.883 86.6166 561.354 88.0145C559.825 89.3688 557.968 90.4391 555.784 91.2254C553.643 92.0118 551.24 92.4049 548.576 92.4049C545.911 92.4049 543.486 92.0118 541.302 91.2254C539.161 90.4391 537.327 89.3688 535.798 88.0145C534.269 86.6166 533.067 85.0003 532.194 83.1655C531.32 81.3307 530.839 79.3648 530.752 77.2679C530.708 76.6127 530.687 75.7826 530.687 74.7779C530.687 73.7294 530.708 72.8776 530.752 72.2223C530.796 70.1254 531.254 68.1595 532.128 66.3248C533.002 64.49 534.203 62.8955 535.732 61.5412C537.305 60.1433 539.161 59.0511 541.302 58.2648C543.486 57.4348 545.911 57.0198 548.576 57.0198C551.24 57.0198 553.643 57.4348 555.784 58.2648C557.968 59.0511 559.825 60.1433 561.354 61.5412C562.926 62.8955 564.128 64.49 564.958 66.3248C565.831 68.1595 566.312 70.1254 566.399 72.2223ZM542.547 76.9403C542.678 78.6004 543.268 79.9109 544.316 80.872C545.408 81.7894 546.828 82.2481 548.576 82.2481C550.323 82.2481 551.721 81.7894 552.769 80.872C553.862 79.9109 554.473 78.6004 554.604 76.9403C554.692 76.285 554.735 75.5424 554.735 74.7124C554.735 73.8823 554.692 73.1397 554.604 72.4844C554.473 70.8244 553.862 69.5356 552.769 68.6182C551.721 67.6572 550.323 67.1766 548.576 67.1766C546.828 67.1766 545.408 67.6572 544.316 68.6182C543.268 69.5356 542.678 70.8244 542.547 72.4844C542.46 73.1397 542.416 73.8823 542.416 74.7124C542.416 75.5424 542.46 76.285 542.547 76.9403Z" fill="#323232"/>
<path d="M101.783 77.5896C101.783 60.4211 87.9453 46.5032 70.8755 46.5032C53.8056 46.5032 39.3057 60.4211 39.3057 77.5896V96.992C39.3038 97.6499 39.5628 98.2814 40.0253 98.7466C40.4879 99.2118 41.1157 99.4723 41.7699 99.4704H45.2901C45.9442 99.4723 46.5721 99.2118 47.0346 98.7466C47.4971 98.2814 47.7561 97.6499 47.7543 96.992V80.8752C47.7543 79.5064 48.8575 78.3968 50.2184 78.3968H55.2312C56.5921 78.3968 57.6954 79.5064 57.6954 80.8752V96.992C57.6935 97.6499 57.9525 98.2814 58.4151 98.7466C58.8776 99.2118 59.5054 99.4723 60.1595 99.4704H63.6798C64.3339 99.4723 64.9618 99.2118 65.4243 98.7466C65.8869 98.2814 66.1458 97.6499 66.1439 96.992V92.0989C66.1439 87.2036 68.7406 82.6802 72.9556 80.2326C77.1707 77.785 82.3639 77.785 86.5789 80.2326C90.7941 82.6802 93.3906 87.2036 93.3906 92.0989V96.992C93.3906 98.3607 94.4939 99.4704 95.8548 99.4704H99.333C100.694 99.4704 101.797 98.3607 101.797 96.992L101.783 77.5896ZM57.0969 70.9724C56.6358 71.7207 56.0033 72.3471 55.2523 72.7993C53.9437 73.5544 52.3723 73.6967 50.9506 73.1888C50.744 73.1245 50.5474 73.0315 50.3663 72.9126C48.7424 72.0159 47.7332 70.3006 47.7332 68.4374C47.7332 66.574 48.7424 64.8588 50.3663 63.962C50.5559 63.8402 50.7623 63.7473 50.9788 63.6858C52.8268 63.0323 54.8837 63.4938 56.2803 64.8754C57.2622 65.7875 57.8188 67.0718 57.8151 68.4161C57.8136 69.3183 57.5651 70.2028 57.0969 70.9724Z" fill="#171717"/>
<path d="M104.532 77.5896C104.532 60.4211 90.6939 46.5032 73.6241 46.5032C56.5541 46.5032 42.0542 60.4211 42.0542 77.5896V96.992C42.0523 97.6499 42.3114 98.2814 42.7739 98.7466C43.2364 99.2118 43.8643 99.4723 44.5184 99.4704H48.0386C48.6927 99.4723 49.3206 99.2118 49.7831 98.7466C50.2457 98.2814 50.5047 97.6499 50.5028 96.992V80.8752C50.5028 79.5064 51.606 78.3968 52.967 78.3968H57.9797C59.3406 78.3968 60.444 79.5064 60.444 80.8752V96.992C60.4421 97.6499 60.701 98.2814 61.1636 98.7466C61.6261 99.2118 62.254 99.4723 62.9081 99.4704H66.4284C67.0825 99.4723 67.7103 99.2118 68.1728 98.7466C68.6354 98.2814 68.8944 97.6499 68.8925 96.992V92.0989C68.8925 87.2036 71.4891 82.6802 75.7041 80.2326C79.9193 77.785 85.1124 77.785 89.3275 80.2326C93.5426 82.6802 96.1391 87.2036 96.1391 92.0989V96.992C96.1391 98.3607 97.2424 99.4704 98.6034 99.4704H102.082C103.442 99.4704 104.546 98.3607 104.546 96.992L104.532 77.5896ZM59.8454 70.9724C59.3844 71.7207 58.7519 72.3471 58.0008 72.7993C56.6923 73.5544 55.1209 73.6967 53.6991 73.1888C53.4926 73.1245 53.2959 73.0315 53.1149 72.9126C51.4909 72.0159 50.4817 70.3006 50.4817 68.4374C50.4817 66.574 51.4909 64.8588 53.1149 63.962C53.3044 63.8402 53.5107 63.7473 53.7274 63.6858C55.5753 63.0323 57.6322 63.4938 59.0288 64.8754C60.0107 65.7875 60.5674 67.0718 60.5636 68.4161C60.5621 69.3183 60.3137 70.2028 59.8454 70.9724Z" fill="#323232"/>
<line x1="144.928" y1="0.777588" x2="144.928" y2="145.197" stroke="#DBDBDB"/>
</svg>
